# xmcd CD database file
#
# Track frame offsets:
#	150
#	11745
#	27450
#	43065
#	59797
#	71922
#	86637
#	102062
#	116192
#	128305
#	140880
#	155222
#
# Disc length: 2242 seconds
#
# Revision: 0
# Processed by: cddbd v1.5.1PL0 Copyright (c) Steve Scherf et al.
# Submitted via: CDex 1.51
#
DISCID=b508c00c
DTITLE=Nat King Cole - L-O-V-E
DYEAR=1900
DGENRE=Jazz
TTITLE0=L-O-V-E
TTITLE1=Unforgetable
TTITLE2=Mona Lisa
TTITLE3=Route 66'
TTITLE4=Autumn Leaves
TTITLE5=Stardust
TTITLE6=Too Young
TTITLE7=It's Only A Paper Moon
TTITLE8=Love Is A Many Splendored Thing
TTITLE9=Pretend
TTITLE10=When I Fall In Love
TTITLE11=Nature Boy
EXTD=
EXTT0=
EXTT1=
EXTT2=
EXTT3=
EXTT4=
EXTT5=
EXTT6=
EXTT7=
EXTT8=
EXTT9=
EXTT10=
EXTT11=
PLAYORDER=
